Coordinates
version=1
nRows=17
nColumns=40
inDegrees=yes

Units are S.I. units (second, meters, Newtons, ...)
Angles are in degrees.

endheader
time	pelvis_tilt	pelvis_list	pelvis_rotation	pelvis_tx	pelvis_ty	pelvis_tz	hip_flexion_r	hip_adduction_r	hip_rotation_r	knee_angle_r	knee_angle_r_beta	ankle_angle_r	subtalar_angle_r	mtp_angle_r	hip_flexion_l	hip_adduction_l	hip_rotation_l	knee_angle_l	knee_angle_l_beta	ankle_angle_l	subtalar_angle_l	mtp_angle_l	lumbar_extension	lumbar_bending	lumbar_rotation	arm_flex_r	arm_add_r	arm_rot_r	elbow_flex_r	pro_sup_r	wrist_flex_r	wrist_dev_r	arm_flex_l	arm_add_l	arm_rot_l	elbow_flex_l	pro_sup_l	wrist_flex_l	wrist_dev_l
     50.27000000	     -6.37652489	     -6.66017544	      4.29457412	      1.12017291	      0.91203800	      0.49632158	     -3.24560944	      6.59117141	    -18.28798506	      7.38175941	      7.38175941	     18.17740177	      8.64220060	     -1.76440544	     36.83988398	     -7.82831956	     -2.50611284	     16.02037197	     16.02037197	      3.88823298	     -7.48842930	      8.13238541	     -7.68607691	      6.70674265	      3.66640764	     56.09856180	    -16.25166129	     -5.38976434	     87.33738862	     44.79505419	      0.00000000	      0.00000000	    -19.42043731	     -5.44858508	     10.86625236	     25.22283462	     43.28888983	      0.00000000	      0.00000000
     50.28157143	     -6.34291779	     -6.60708632	      4.06468783	      1.12145088	      0.91035713	      0.49464777	     -3.89937489	      6.35970848	    -17.98668953	      7.70015267	      7.70015267	     18.72314768	      8.67592975	     -1.86352346	     36.65914104	     -7.74864700	     -2.52048737	     17.54647323	     17.54647323	      3.16134462	     -8.70843356	      8.01963809	     -7.46342164	      6.67469347	      3.72524110	     56.64981390	    -16.08456026	     -5.40868045	     87.91087937	     44.78492635	      0.00000000	      0.00000000	    -20.23708538	     -5.23065642	     10.96395929	     24.88801206	     43.28199617	      0.00000000	      0.00000000
     50.29314286	     -6.32110419	     -6.47047691	      3.76184888	      1.12289681	      0.90884174	      0.49296283	     -4.54612033	      6.01388986	    -17.64909216	      8.03172904	      8.03172904	     19.20746140	      8.72720658	     -1.94619114	     36.36169111	     -7.61938354	     -2.50703690	     18.93552729	     18.93552729	      2.40074855	     -9.79698990	      7.98891113	     -7.22850071	      6.50874317	      3.82402859	     56.91239007	    -15.98002357	     -5.42651086	     88.38201831	     44.77465353	      0.00000000	      0.00000000	    -20.96455619	     -5.03017454	     11.02530892	     24.61608112	     43.27285642	      0.00000000	      0.00000000
     50.30471429	     -6.29614103	     -6.34275241	      3.44565683	      1.12440588	      0.90746288	      0.49125650	     -5.13540661	      5.64147852	    -17.29021612	      8.47996830	      8.47996830	     19.65756781	      8.76787208	     -2.02426531	     36.08408546	     -7.48089480	     -2.29516332	     20.32740286	     20.32740286	      1.72040102	    -10.89212645	      7.91564881	     -7.00374009	      6.36124575	      3.86313378	     56.96473681	    -15.82921952	     -5.43250279	     88.90428860	     44.76119920	      0.00000000	      0.00000000	    -21.55281922	     -4.86367495	     11.07548929	     24.37429245	     43.26672224	      0.00000000	      0.00000000
     50.31628571	     -6.44088823	     -6.21112449	      3.20094767	      1.12565150	      0.90607545	      0.48933075	     -5.24551481	      5.16169577	    -17.06612530	      9.48076984	      9.48076984	     20.32449360	      8.61630528	     -1.82900016	     35.90634643	     -7.11013498	     -1.39542064	     21.38420315	     21.38420315	      0.56513855	    -12.94295090	      7.44026040	     -6.66963353	      6.24425383	      3.90412700	     56.48630600	    -15.69151049	     -5.64033803	     90.66440137	     44.72654692	      0.00000000	      0.00000000	    -21.78896602	     -4.73029287	     11.18072650	     24.01511131	     43.31256060	      0.00000000	      0.00000000
     50.32785714	     -6.39313922	     -6.05778374	      2.91077711	      1.12710832	      0.90531466	      0.48752266	     -5.72053122	      4.71418780	    -16.75546677	     10.15461782	     10.15461782	     20.64499986	      8.56568287	     -1.88561070	     35.63445666	     -6.94675162	     -1.19438719	     22.65398884	     22.65398884	      0.28890056	    -13.66857566	      7.11374073	     -6.53141214	      6.05991375	      3.94249317	     56.10390251	    -15.63886761	     -5.74230744	     91.22682833	     44.71643383	      0.00000000	      0.00000000	    -21.92951095	     -4.67125719	     11.22025243	     23.80449193	     43.32797897	      0.00000000	      0.00000000
     50.33942857	     -6.48084846	     -5.81824073	      2.58149648	      1.12833703	      0.90484527	      0.48565320	     -5.79029118	      4.08308837	    -16.37643553	     11.28250047	     11.28250047	     20.91916978	      8.28171965	     -2.04742248	     35.42637279	     -6.68210581	     -1.02770625	     23.68052007	     23.68052007	      0.11915082	    -14.47830482	      6.73416957	     -6.30474560	      5.77532403	      3.99379311	     55.26448420	    -15.56439265	     -5.98235770	     92.34782000	     44.69541879	      0.00000000	      0.00000000	    -21.84340769	     -4.60790710	     11.26723565	     23.47942316	     43.36387410	      0.00000000	      0.00000000
     50.35100000	     -6.49309297	     -5.54362979	      2.32279627	      1.12954375	      0.90489995	      0.48365177	     -5.85757772	      3.41311781	    -16.00430600	     12.52764138	     12.52764138	     21.02834210	      7.82191479	     -2.42746600	     35.09617995	     -6.36978270	     -0.88097783	     24.57250490	     24.57250490	      0.30160464	    -15.09472780	      6.33801784	     -6.16132542	      5.44994802	      4.16767292	     54.07039773	    -15.66113877	     -6.37453122	     93.56010092	     44.67853903	      0.00000000	      0.00000000	    -21.47953857	     -4.67753735	     11.29158153	     23.07032239	     43.42207002	      0.00000000	      0.00000000
     50.36257143	     -6.50209453	     -5.29379567	      2.08596475	      1.13047792	      0.90544368	      0.48155199	     -5.72238289	      2.72486740	    -15.64801755	     14.07366823	     14.07366823	     20.81875760	      7.16458055	     -3.15694312	     34.75937344	     -6.08809121	     -0.84185089	     25.37602394	     25.37602394	      0.74408680	    -15.56198510	      6.03556404	     -6.09378330	      5.15397443	      4.26250963	     52.69499813	    -15.76103583	     -6.78277524	     94.68769984	     44.66533645	      0.00000000	      0.00000000	    -20.83720240	     -4.73254550	     11.30899027	     22.70312695	     43.49013351	      0.00000000	      0.00000000
     50.37414286	     -6.48520730	     -5.05550175	      1.87901332	      1.13125294	      0.90643710	      0.47933788	     -5.38078969	      1.99254299	    -15.32204031	     16.00238846	     16.00238846	     20.42201582	      6.35953047	     -4.05272943	     34.32508174	     -5.81666295	     -0.87323772	     26.01486553	     26.01486553	      1.40149500	    -15.87775569	      5.76595457	     -6.08597215	      4.89061848	      4.18490451	     51.28116915	    -15.72266842	     -7.02269653	     95.39376250	     44.65498047	      0.00000000	      0.00000000	    -20.14606474	     -4.81897483	     11.30315151	     22.52746697	     43.54329145	      0.00000000	      0.00000000
     50.38571429	     -6.15057913	     -5.03774700	      1.81509036	      1.13221780	      0.90838721	      0.47697172	     -5.53213743	      1.55890539	    -15.23789029	     17.59255906	     17.59255906	     19.74329906	      5.86050670	     -4.39055099	     33.47242951	     -5.70314656	     -0.72131313	     26.47536184	     26.47536184	      2.20946960	    -16.13551054	      5.44085621	     -6.38897440	      4.91867898	      3.81865366	     49.74931643	    -15.49312864	     -6.96202408	     95.35807924	     44.65031367	      0.00000000	      0.00000000	    -19.39891436	     -4.90525253	     11.29399882	     22.65198529	     43.56814556	      0.00000000	      0.00000000
     50.39728571	     -6.33276457	     -4.59139797	      1.52751823	      1.13233031	      0.90959668	      0.47459559	     -4.00315090	      0.35816389	    -14.70594098	     21.21784798	     21.21784798	     18.97730530	      4.17782303	     -5.96335222	     33.05611268	     -5.27447391	     -1.17761769	     26.74059121	     26.74059121	      2.96359434	    -16.23735973	      5.20961732	     -6.24184801	      4.40969171	      3.73424547	     48.02982560	    -15.46192442	     -7.21214337	     95.97630502	     44.63853522	      0.00000000	      0.00000000	    -18.53671906	     -5.12537691	     11.23147596	     22.61770590	     43.62158223	      0.00000000	      0.00000000
     50.40885714	     -6.40900418	     -4.51194403	      1.37763379	      1.13241061	      0.91131325	      0.47225181	     -2.88537139	     -0.15388855	    -13.79113020	     23.82505166	     23.82505166	     15.50866574	      0.79742376	    -13.04025029	     32.48877482	     -5.09527449	     -1.17714435	     26.87150751	     26.87150751	      4.09189236	    -16.28718967	      5.86567842	     -6.28115000	      4.35303585	      4.94840490	     44.82325057	    -16.57088456	     -9.17936699	     98.89612110	     44.64071993	      0.00000000	      0.00000000	    -16.41866457	     -5.41559124	     10.94040958	     21.82211729	     43.87387906	      0.00000000	      0.00000000
     50.42042857	     -6.32025024	     -4.30869496	      1.23081025	      1.13236617	      0.91330061	      0.46974137	     -1.43041298	     -1.12592944	    -13.64887572	     27.66305830	     27.66305830	     14.01711775	     -0.57845389	    -14.09404708	     31.61124475	     -4.84469396	     -1.49342222	     26.75919578	     26.75919578	      4.80027548	    -16.15416999	      5.54774387	     -6.43016107	      4.19330947	      4.43459870	     43.05377954	    -16.19074143	     -8.93906790	     98.32088297	     44.64986238	      0.00000000	      0.00000000	    -15.38723004	     -5.60639385	     10.89924307	     22.10904491	     43.91958772	      0.00000000	      0.00000000
     50.43200000	     -6.32898333	     -4.21604751	      1.09694789	      1.13205174	      0.91507725	      0.46738998	      0.27376876	     -1.77580971	    -12.90734749	     31.34950439	     31.34950439	     10.50113770	     -4.24014659	    -19.02614908	     30.82554931	     -4.68650066	     -1.75133394	     26.57800279	     26.57800279	      5.43243665	    -16.07608762	      5.21448825	     -6.50424584	      4.15650420	      4.30606644	     40.82941294	    -16.06860215	     -9.31496160	     98.08975314	     44.70456652	      0.00000000	      0.00000000	    -14.11057663	     -5.88189571	     10.49007324	     22.60786322	     44.14916062	      0.00000000	      0.00000000
     50.44357143	     -6.23928283	     -4.02428919	      0.94597509	      1.13156063	      0.91687918	      0.46500993	      2.26660471	     -2.74538543	    -12.56721701	     35.86986421	     35.86986421	      8.44506773	     -6.12347994	    -19.19844316	     29.85755414	     -4.44970024	     -2.16467721	     26.25789896	     26.25789896	      6.02901066	    -15.87107787	      4.92860045	     -6.70135367	      4.00587386	      3.93862154	     38.83714675	    -15.82786583	     -9.14481878	     97.32781946	     44.71970615	      0.00000000	      0.00000000	    -12.81730732	     -6.22261966	     10.38197966	     23.12283682	     44.20440891	      0.00000000	      0.00000000
     50.45514286	     -6.24989109	     -4.00005279	      0.79879343	      1.13078425	      0.91836044	      0.46292129	      4.56920144	     -3.26358082	    -11.63578474	     40.41984461	     40.41984461	      5.85274312	     -9.21894875	    -18.94779513	     29.06079986	     -4.37544290	     -2.42883034	     25.98536533	     25.98536533	      6.49887648	    -15.68219204	      4.50512697	     -6.77557223	      4.06064173	      3.85445676	     36.56606044	    -15.79602747	     -9.38158916	     96.25154993	     44.76406354	      0.00000000	      0.00000000	    -11.42799911	     -6.65205752	     10.08782772	     24.01216644	     44.31014292	      0.00000000	      0.00000000
